<mxfile host="app.diagrams.net" agent="Mozilla/5.0 (Windows NT 10.0; Win64; x64) AppleWebKit/537.36 (KHTML, like Gecko) Chrome/131.0.0.0 Safari/537.36" version="24.9.0">
  <diagram name="PÃ¡gina-1" id="ecpGeNeETqIwxGvuL5NR">
    <mxGraphModel dx="669" dy="561" grid="1" gridSize="10" guides="1" tooltips="1" connect="1" arrows="1" fold="1" page="1" pageScale="1" pageWidth="827" pageHeight="1169" math="0" shadow="0">
      <root>
        <mxCell id="0" />
        <mxCell id="1" parent="0" />
        <mxCell id="_PRyMNBIPMFC799tjhLE-4" style="edgeStyle=orthogonalEdgeStyle;rounded=0;orthogonalLoop=1;jettySize=auto;html=1;entryX=1;entryY=0.5;entryDx=0;entryDy=0;" edge="1" parent="1" source="_PRyMNBIPMFC799tjhLE-1" target="_PRyMNBIPMFC799tjhLE-2">
          <mxGeometry relative="1" as="geometry" />
        </mxCell>
        <mxCell id="_PRyMNBIPMFC799tjhLE-1" value="Tarefa" style="shape=umlActor;verticalLabelPosition=bottom;verticalAlign=top;html=1;outlineConnect=0;" vertex="1" parent="1">
          <mxGeometry x="490" y="370" width="40" height="80" as="geometry" />
        </mxCell>
        <mxCell id="_PRyMNBIPMFC799tjhLE-2" value="cadastrar" style="ellipse;whiteSpace=wrap;html=1;" vertex="1" parent="1">
          <mxGeometry x="310" y="370" width="90" height="60" as="geometry" />
        </mxCell>
        <mxCell id="_PRyMNBIPMFC799tjhLE-3" value="Actor" style="shape=umlActor;verticalLabelPosition=bottom;verticalAlign=top;html=1;outlineConnect=0;" vertex="1" parent="1">
          <mxGeometry x="180" y="370" width="40" height="80" as="geometry" />
        </mxCell>
      </root>
    </mxGraphModel>
  </diagram>
</mxfile>
